<?xml version="1.0" standalone="no"?>
<!DOCTYPE svg PUBLIC "-//W3C//DTD SVG 20010904//EN"
 "http://www.w3.org/TR/2001/REC-SVG-20010904/DTD/svg10.dtd">
<svg version="1.0" xmlns="http://www.w3.org/2000/svg"
 width="1280.000000pt" height="1280.000000pt" viewBox="0 0 1280.000000 1280.000000"
 preserveAspectRatio="xMidYMid meet">
<metadata>
Created by potrace 1.16, written by Peter Selinger 2001-2019
</metadata>
<g transform="translate(0.000000,1280.000000) scale(0.100000,-0.100000)"
fill="#000000" stroke="none">
<path d="M2416 10500 c-62 -24 -111 -71 -132 -127 -23 -60 -13 -155 21 -203
47 -66 3109 -3121 3149 -3142 52 -27 139 -27 192 0 40 21 79 59 103 101 19 35
25 128 11 181 -11 42 -131 164 -1578 1612 -1535 1535 -1568 1567 -1621 1582
-69 20 -84 20 -145 -4z"/>
<path d="M10153 10437 c-53 -22 -71 -38 -393 -351 -74 -73 -261 -253 -415
-401 -154 -148 -345 -332 -425 -410 -182 -177 -377 -365 -745 -720 -159 -154
-351 -338 -425 -410 -74 -72 -198 -192 -275 -266 -468 -451 -522 -505 -545
-547 -75 -137 22 -315 178 -329 91 -8 131 15 285 164 284 275 438 424 592 573
88 85 288 279 445 430 157 151 359 347 450 435 91 88 291 282 445 430 154 149
356 344 450 435 93 91 235 229 315 306 80 78 184 179 231 225 100 97 129 142
136 216 10 96 -39 178 -132 222 -57 27 -106 26 -172 -2z"/>
<path d="M7040 5833 c-75 -38 -111 -93 -118 -179 -3 -45 0 -76 12 -106 13 -35
303 -331 1583 -1610 1364 -1363 1573 -1568 1608 -1577 115 -31 213 8 268 106
28 50 29 161 3 213 -22 42 -3108 3134 -3151 3156 -16 9 -57 18 -90 21 -52 4
-68 1 -115 -24z"/>
<path d="M5548 5782 c-20 -9 -72 -50 -115 -91 -113 -108 -583 -561 -758 -731
-82 -81 -208 -202 -280 -271 -138 -133 -351 -339 -610 -589 -88 -85 -286 -277
-440 -425 -154 -149 -345 -333 -425 -411 -128 -124 -384 -371 -522 -504 -60
-58 -88 -118 -88 -190 0 -73 27 -128 83 -174 39 -32 56 -39 106 -43 58 -6 151
11 151 27 0 4 9 11 20 16 10 5 86 74 167 154 82 80 270 262 418 405 149 143
349 336 445 430 330 321 702 680 711 685 4 3 82 78 171 165 90 88 285 277 433
420 781 751 821 792 835 845 15 56 15 94 0 148 -13 50 -66 113 -114 136 -45
21 -141 20 -188 -2z"/>
</g>
</svg>
