<?xml version="1.0" standalone="no"?>
<!DOCTYPE svg PUBLIC "-//W3C//DTD SVG 20010904//EN"
 "http://www.w3.org/TR/2001/REC-SVG-20010904/DTD/svg10.dtd">
<svg version="1.0" xmlns="http://www.w3.org/2000/svg"
 width="1280.000000pt" height="1280.000000pt" viewBox="0 0 1280.000000 1280.000000"
 preserveAspectRatio="xMidYMid meet">
<metadata>
Created by potrace 1.16, written by Peter Selinger 2001-2019
</metadata>
<g transform="translate(0.000000,1280.000000) scale(0.100000,-0.100000)"
fill="#000000" stroke="none">
<path d="M5340 10598 c-28 -7 -352 -326 -1598 -1571 -893 -892 -1572 -1578
-1583 -1599 -38 -73 -20 -189 39 -251 63 -67 177 -90 253 -52 47 24 3135 3110
3161 3159 47 91 30 192 -46 266 -56 56 -138 73 -226 48z"/>
<path d="M9789 10037 c-21 -8 -50 -24 -65 -36 -16 -13 -1567 -1560 -3447
-3439 -2186 -2184 -3426 -3430 -3439 -3455 -59 -117 -16 -266 96 -332 82 -48
200 -49 267 -2 57 40 6889 6882 6906 6916 23 48 23 164 -1 208 -26 51 -75 102
-120 125 -51 26 -148 33 -197 15z"/>
<path d="M10373 5671 c-18 -5 -45 -16 -60 -26 -16 -10 -724 -714 -1574 -1564
-1040 -1040 -1552 -1559 -1564 -1585 -26 -55 -25 -149 2 -202 58 -111 186
-153 296 -98 17 9 735 719 1594 1577 l1562 1562 16 58 c20 71 9 135 -36 197
-49 67 -151 102 -236 81z"/>
</g>
</svg>
