<?xml version="1.0" standalone="no"?>
<!DOCTYPE svg PUBLIC "-//W3C//DTD SVG 20010904//EN"
 "http://www.w3.org/TR/2001/REC-SVG-20010904/DTD/svg10.dtd">
<svg version="1.0" xmlns="http://www.w3.org/2000/svg"
 width="3264.000000pt" height="3264.000000pt" viewBox="0 0 3264.000000 3264.000000"
 preserveAspectRatio="xMidYMid meet">
<metadata>
Created by potrace 1.16, written by Peter Selinger 2001-2019
</metadata>
<g transform="translate(0.000000,3264.000000) scale(0.100000,-0.100000)"
fill="#000000" stroke="none">
<path d="M3230 32459 c-207 -10 -352 -24 -455 -44 -44 -9 -107 -20 -140 -26
-33 -6 -64 -15 -70 -20 -5 -5 -18 -9 -30 -9 -11 0 -29 -6 -40 -14 -11 -7 -37
-16 -59 -20 -21 -4 -46 -11 -55 -15 -9 -5 -61 -23 -116 -41 -55 -18 -134 -50
-175 -70 -41 -21 -120 -59 -175 -86 -55 -27 -109 -56 -120 -66 -11 -9 -42 -29
-69 -43 -50 -27 -133 -80 -238 -153 -213 -148 -544 -482 -690 -695 -7 -11 -21
-29 -31 -40 -30 -35 -102 -147 -137 -212 -18 -33 -38 -67 -45 -75 -22 -24
-105 -193 -105 -212 0 -10 -4 -18 -10 -18 -5 0 -10 -9 -10 -19 0 -11 -5 -23
-10 -26 -14 -8 -50 -85 -50 -105 0 -9 -4 -20 -8 -25 -11 -13 -34 -79 -62 -175
-11 -41 -28 -90 -36 -108 -7 -18 -14 -39 -14 -47 0 -9 -4 -23 -10 -33 -5 -9
-14 -44 -20 -77 -6 -33 -17 -96 -25 -140 -47 -259 -44 515 -45 -13535 0 -8536
3 -13194 10 -13265 12 -132 39 -322 51 -350 4 -11 11 -40 14 -65 8 -54 23
-106 40 -140 7 -14 16 -43 20 -65 4 -22 11 -44 15 -50 4 -5 10 -23 14 -40 12
-53 56 -167 101 -260 119 -250 137 -285 144 -285 5 0 17 -17 27 -37 9 -21 35
-66 56 -101 21 -34 38 -66 38 -71 0 -5 7 -15 16 -22 9 -7 41 -51 72 -97 30
-45 64 -91 76 -100 12 -9 40 -42 62 -73 54 -72 276 -295 378 -379 125 -104
312 -237 398 -283 24 -13 75 -44 115 -70 39 -26 74 -47 78 -47 9 0 88 -36 169
-77 83 -41 201 -86 288 -108 35 -9 73 -23 85 -31 12 -8 33 -14 47 -14 14 0 27
-4 31 -10 3 -5 33 -12 66 -16 32 -4 62 -11 65 -15 3 -5 18 -9 35 -9 16 0 37
-4 47 -10 9 -5 58 -14 107 -20 50 -6 122 -15 160 -20 93 -12 26566 -12 26660
0 121 16 258 38 305 50 25 6 70 16 100 22 30 5 59 14 64 19 6 5 18 9 28 9 9 0
32 6 50 14 18 8 87 31 152 52 66 20 149 51 185 69 60 29 147 70 227 106 43 19
220 131 382 241 131 90 361 297 494 445 129 144 208 242 208 258 0 7 4 15 8
17 14 6 132 171 132 185 0 7 5 13 10 13 6 0 10 6 10 13 0 6 18 39 41 72 22 33
56 94 76 135 19 41 55 116 78 165 24 50 58 135 75 190 18 55 40 123 51 150 10
28 19 58 19 67 0 9 4 19 9 22 5 4 12 30 16 59 4 28 11 57 15 62 8 11 13 35 32
165 7 47 18 92 23 100 13 20 19 26653 6 26777 -10 89 -32 222 -50 303 -6 25
-15 72 -22 105 -6 33 -15 64 -20 70 -5 5 -9 17 -9 26 0 10 -6 30 -14 46 -8 15
-31 82 -52 148 -21 66 -52 149 -69 185 -18 36 -51 106 -75 155 -57 120 -202
358 -256 420 -24 27 -44 53 -44 58 0 9 -42 65 -110 147 -74 88 -311 328 -371
375 -31 25 -76 61 -99 82 -72 65 -341 243 -367 243 -5 0 -20 10 -33 23 -14 13
-79 50 -145 81 -66 32 -127 62 -135 67 -8 5 -26 14 -40 19 -25 10 -49 21 -92
40 -41 18 -239 80 -256 80 -9 0 -26 7 -36 15 -11 8 -29 15 -41 15 -12 0 -25 4
-31 9 -5 5 -36 14 -69 20 -33 5 -96 17 -140 26 -44 8 -147 23 -230 32 -138 15
-1189 16 -13205 18 -7180 1 -13129 -2 -13220 -6z m25735 -709 c33 -5 89 -12
125 -15 118 -10 507 -93 534 -114 6 -4 40 -18 76 -31 36 -13 76 -30 90 -37 14
-7 31 -13 38 -13 7 0 20 -4 30 -10 9 -5 40 -19 67 -30 62 -26 95 -43 215 -110
52 -29 104 -58 115 -64 87 -47 303 -204 410 -299 256 -225 478 -485 616 -718
24 -41 53 -88 64 -105 20 -29 120 -227 136 -269 4 -11 14 -36 23 -55 61 -142
105 -275 140 -425 10 -38 21 -83 26 -100 5 -16 11 -55 15 -85 3 -30 10 -68 15
-85 5 -16 11 -55 14 -85 3 -30 10 -98 16 -150 8 -68 10 -3651 7 -12675 -3
-11648 -4 -12588 -20 -12685 -9 -58 -21 -134 -26 -170 -6 -36 -15 -81 -20
-100 -5 -19 -17 -66 -26 -105 -36 -152 -82 -291 -135 -410 -5 -11 -16 -38 -25
-60 -77 -183 -242 -462 -372 -630 -4 -6 -21 -28 -37 -50 -27 -36 -172 -200
-221 -250 -74 -74 -253 -231 -320 -280 -44 -32 -102 -75 -130 -95 -27 -20 -77
-52 -110 -70 -65 -36 -107 -61 -115 -70 -3 -3 -26 -16 -52 -30 -27 -13 -48
-28 -48 -32 0 -5 -8 -8 -18 -8 -10 0 -26 -6 -37 -13 -11 -7 -45 -24 -75 -37
-30 -12 -77 -33 -105 -45 -27 -12 -63 -27 -80 -33 -122 -43 -178 -62 -235 -77
-36 -9 -72 -20 -80 -23 -8 -3 -26 -7 -40 -9 -14 -2 -52 -11 -85 -19 -81 -20
-233 -43 -430 -63 -83 -9 -3219 -11 -12665 -8 -6905 2 -12568 7 -12585 11 -16
4 -59 11 -95 16 -292 40 -569 113 -775 204 -16 7 -50 22 -75 32 -122 51 -395
206 -502 285 -25 19 -78 57 -118 84 -129 89 -350 306 -521 510 -83 99 -222
305 -289 430 -24 44 -54 97 -67 117 -12 21 -23 40 -23 43 0 2 -12 30 -26 62
-101 227 -158 390 -190 538 -43 206 -44 211 -73 460 -14 119 -15 25141 -1
25265 44 397 95 616 196 847 8 17 14 36 14 42 0 6 4 19 10 29 5 9 19 40 30 67
23 56 24 57 110 215 89 162 242 391 307 460 18 19 43 50 56 68 24 34 327 336
392 390 22 18 64 49 93 70 29 20 81 57 115 82 34 25 82 56 107 69 25 13 47 26
50 30 3 3 16 12 30 18 14 7 52 28 85 48 54 31 157 83 210 105 11 5 36 15 55
24 58 25 273 108 305 118 102 32 336 76 520 98 144 17 688 18 12740 18 7251 0
12615 -3 12650 -8z"/>
</g>
</svg>
