<?xml version="1.0" standalone="no"?>
<!DOCTYPE svg PUBLIC "-//W3C//DTD SVG 20010904//EN"
 "http://www.w3.org/TR/2001/REC-SVG-20010904/DTD/svg10.dtd">
<svg version="1.0" xmlns="http://www.w3.org/2000/svg"
 width="3264.000000pt" height="3264.000000pt" viewBox="0 0 3264.000000 3264.000000"
 preserveAspectRatio="xMidYMid meet">
<metadata>
Created by potrace 1.16, written by Peter Selinger 2001-2019
</metadata>
<g transform="translate(0.000000,3264.000000) scale(0.100000,-0.100000)"
fill="#000000" stroke="none">
<path d="M1375 32454 c-85 -13 -237 -56 -315 -90 -53 -23 -154 -75 -160 -83
-3 -3 -21 -15 -40 -25 -19 -11 -40 -25 -47 -30 -33 -29 -43 -36 -49 -36 -33 0
-256 -227 -324 -330 -8 -12 -20 -28 -26 -34 -5 -6 -19 -27 -30 -46 -10 -19
-22 -37 -25 -40 -14 -11 -98 -200 -122 -270 -14 -42 -33 -114 -43 -160 -18
-82 -19 -279 -19 -6290 0 -5117 2 -6217 13 -6275 22 -112 69 -252 128 -372 45
-93 102 -191 124 -213 3 -3 16 -21 30 -40 50 -72 146 -170 248 -253 105 -85
176 -130 287 -183 172 -81 312 -119 490 -134 168 -14 12083 -14 12263 0 492
38 943 341 1176 790 77 149 107 237 149 430 17 80 17 12400 0 12480 -42 195
-67 269 -134 405 -117 234 -317 456 -544 600 -121 77 -303 151 -470 192 -66
17 -445 18 -6270 19 -5235 2 -6214 0 -6290 -12z m11956 -714 c56 -5 116 -14
133 -20 17 -5 63 -19 101 -31 283 -87 559 -321 691 -587 16 -31 32 -58 37 -60
4 -2 7 -9 7 -15 1 -7 9 -30 20 -52 11 -22 19 -50 20 -62 0 -12 4 -24 9 -27 5
-3 12 -27 16 -53 4 -27 12 -54 18 -62 17 -20 17 -11492 1 -11512 -7 -8 -15
-34 -19 -59 -4 -25 -11 -49 -15 -55 -4 -5 -11 -24 -14 -42 -10 -47 -80 -184
-143 -282 -63 -97 -204 -243 -303 -313 -66 -47 -255 -148 -276 -148 -7 0 -25
-7 -40 -15 -16 -8 -38 -15 -50 -15 -11 0 -24 -4 -30 -9 -34 -35 -43 -35 -5854
-38 -3553 -2 -5713 0 -5725 6 -11 5 -45 12 -75 16 -30 3 -59 10 -65 14 -5 5
-27 12 -49 15 -21 4 -46 11 -55 16 -9 5 -61 30 -116 56 -119 57 -237 140 -331
232 -109 107 -169 192 -237 334 -60 127 -85 206 -108 353 -6 37 -8 2207 -7
5730 3 5500 4 5672 22 5740 72 273 156 421 336 598 127 125 231 198 360 255
50 23 166 63 190 67 14 2 45 10 70 17 35 9 1255 13 5705 17 3113 4 5663 5
5667 3 4 -1 53 -7 109 -12z"/>
<path d="M18795 32459 c-165 -22 -380 -100 -520 -190 -16 -10 -37 -22 -45 -26
-8 -4 -19 -11 -25 -15 -5 -4 -46 -34 -90 -67 -117 -87 -309 -305 -352 -401 -4
-8 -9 -17 -12 -20 -4 -3 -27 -48 -53 -100 -50 -100 -108 -264 -108 -303 0 -13
-4 -27 -10 -33 -33 -33 -34 -194 -34 -6289 0 -6141 0 -6232 34 -6296 6 -10 10
-26 10 -37 0 -58 72 -237 164 -407 46 -86 146 -215 231 -300 254 -252 560
-397 900 -425 176 -14 12076 -14 12263 0 201 16 371 66 562 166 178 94 385
275 501 439 72 102 189 329 189 367 0 8 4 18 8 24 10 11 28 65 44 130 10 38
13 1433 15 6333 2 3659 -1 6289 -6 6295 -5 6 -12 35 -16 63 -4 29 -11 55 -16
59 -5 3 -9 16 -9 30 0 13 -4 24 -9 24 -5 0 -12 16 -15 35 -4 19 -13 47 -21 62
-8 15 -15 34 -15 41 0 6 -4 12 -9 12 -5 0 -12 11 -15 25 -9 35 -71 139 -135
225 -77 103 -229 253 -330 324 -79 56 -298 176 -322 176 -6 0 -25 6 -42 14
-33 14 -117 38 -202 58 -62 15 -12397 21 -12510 7z m11960 -723 c39 -3 84 -10
100 -15 17 -6 68 -23 115 -37 107 -34 161 -60 280 -140 87 -58 249 -206 273
-250 6 -11 13 -21 16 -24 21 -18 67 -90 104 -166 69 -138 79 -164 114 -299 17
-67 18 -292 18 -5795 0 -4430 -3 -5734 -12 -5765 -7 -22 -19 -67 -28 -100 -23
-81 -134 -305 -192 -385 -26 -35 -70 -88 -99 -116 -51 -52 -186 -156 -234
-183 -87 -47 -197 -102 -210 -105 -8 -2 -28 -8 -43 -14 -16 -7 -36 -12 -46
-12 -9 0 -21 -4 -27 -9 -34 -35 -43 -35 -5854 -38 -3590 -2 -5712 0 -5725 6
-11 5 -46 13 -77 16 -32 4 -60 10 -63 15 -2 4 -25 11 -50 14 -25 4 -45 11 -45
17 0 5 -8 9 -18 9 -23 0 -182 82 -257 132 -109 74 -211 168 -284 264 -17 21
-35 44 -40 50 -5 6 -34 58 -64 115 -56 105 -90 196 -124 324 -17 67 -18 291
-18 5760 0 5514 1 5692 19 5770 41 179 93 301 192 451 123 186 370 383 559
444 22 7 45 16 50 20 6 4 30 11 55 15 25 4 52 11 60 15 8 4 31 12 50 16 42 10
11325 22 11390 12 25 -3 77 -9 115 -12z"/>
<path d="M1560 15090 c-8 -5 -44 -10 -80 -10 -36 -1 -83 -5 -105 -10 -22 -5
-62 -14 -88 -19 -50 -11 -109 -30 -162 -51 -16 -7 -46 -19 -65 -27 -19 -8 -43
-18 -53 -24 -10 -6 -37 -20 -60 -32 -23 -11 -44 -24 -47 -27 -3 -4 -12 -9 -20
-13 -102 -46 -310 -231 -408 -363 -29 -38 -55 -73 -60 -79 -4 -5 -11 -17 -15
-25 -4 -8 -21 -37 -37 -65 -72 -119 -130 -268 -168 -430 -15 -64 -17 -575 -19
-6248 -3 -5457 -1 -6191 12 -6279 15 -99 38 -196 56 -230 5 -10 9 -23 9 -28 0
-38 155 -330 191 -360 3 -3 10 -12 15 -21 30 -54 165 -197 253 -269 71 -59
180 -127 265 -168 119 -58 152 -72 168 -72 8 0 18 -4 24 -8 11 -10 65 -28 130
-44 64 -16 12602 -24 12618 -8 5 5 21 10 34 10 24 0 175 48 242 76 450 194
757 556 875 1034 9 36 20 126 26 200 15 202 6 12310 -9 12370 -6 25 -16 67
-21 94 -33 154 -136 374 -236 507 -137 183 -314 342 -477 428 -35 18 -74 39
-88 46 -14 8 -41 20 -60 28 -19 8 -48 20 -65 27 -53 22 -147 50 -167 50 -11 0
-28 5 -39 10 -10 6 -70 16 -132 22 -146 15 -12214 23 -12237 8z m11750 -740
c74 -6 139 -15 144 -20 6 -6 18 -10 28 -10 59 0 273 -95 393 -175 87 -58 235
-205 302 -302 53 -75 148 -258 158 -304 4 -18 11 -40 16 -49 11 -20 28 -99 40
-182 14 -103 7 -11421 -7 -11439 -7 -8 -15 -34 -19 -59 -4 -25 -11 -49 -15
-55 -4 -5 -11 -24 -14 -42 -22 -100 -174 -347 -283 -458 -126 -129 -303 -237
-483 -294 -58 -19 -112 -36 -120 -39 -8 -3 -22 -4 -31 -3 -9 1 -28 -3 -43 -9
-38 -14 -11444 -14 -11482 0 -15 6 -34 10 -43 9 -9 -1 -23 0 -31 3 -8 3 -42
13 -75 23 -33 9 -68 20 -77 26 -10 5 -23 9 -30 9 -25 0 -200 96 -274 150 -81
59 -204 177 -244 235 -14 20 -30 42 -35 48 -32 38 -97 155 -125 228 -18 46
-36 93 -41 104 -9 22 -14 44 -38 170 -13 67 -13 11339 0 11415 21 124 50 219
100 328 16 35 29 67 29 72 0 5 4 10 8 12 4 2 19 21 32 43 59 99 169 223 265
300 28 22 52 43 55 46 9 10 124 76 185 106 116 58 276 102 405 112 151 13
11191 13 11350 1z"/>
<path d="M18950 15091 c-8 -5 -62 -11 -119 -14 -57 -4 -109 -11 -115 -17 -5
-5 -20 -10 -33 -10 -61 0 -379 -132 -391 -162 -2 -4 -10 -8 -17 -8 -22 0 -206
-138 -278 -208 -73 -72 -209 -248 -234 -302 -4 -8 -9 -17 -12 -20 -7 -5 -89
-172 -115 -233 -9 -21 -16 -46 -16 -57 0 -10 -4 -21 -9 -24 -5 -4 -12 -30 -16
-59 -4 -28 -11 -57 -16 -63 -32 -40 -33 -183 -33 -6289 0 -6141 0 -6232 34
-6296 6 -10 10 -27 10 -39 0 -29 57 -192 96 -275 124 -260 294 -462 511 -607
101 -68 302 -168 337 -168 8 0 17 -4 20 -8 3 -5 40 -16 83 -26 43 -10 88 -22
101 -27 33 -13 12569 -12 12577 1 3 6 17 10 31 10 85 0 402 144 536 243 106
78 248 219 323 321 62 84 178 300 190 354 3 17 11 34 16 37 5 4 9 17 9 30 0
13 4 26 9 29 5 4 12 30 16 59 4 28 11 57 16 63 5 6 8 2636 6 6295 -2 4903 -5
6295 -15 6334 -61 246 -210 514 -390 698 -70 71 -234 197 -312 238 -25 13 -47
26 -50 29 -6 6 -64 34 -110 53 -19 8 -48 20 -65 27 -53 22 -147 50 -167 50
-11 0 -28 5 -39 10 -60 33 -227 33 -6299 36 -3330 2 -6062 0 -6070 -5z m11750
-741 c63 -6 126 -14 140 -20 14 -5 36 -11 50 -13 69 -9 259 -96 368 -168 104
-71 242 -207 307 -304 42 -64 124 -211 130 -235 1 -3 4 -12 7 -20 7 -18 31
-93 55 -175 17 -57 18 -320 18 -5790 0 -4448 -3 -5739 -12 -5770 -7 -22 -22
-74 -34 -115 -36 -124 -100 -246 -195 -375 -162 -218 -434 -387 -720 -447 -46
-9 -1288 -13 -5749 -17 -3129 -4 -5708 -3 -5730 0 -214 34 -384 98 -550 207
-121 80 -217 175 -304 302 -99 145 -129 213 -202 460 -11 37 -14 1034 -16
5703 -2 3519 0 5684 6 5725 13 90 30 173 40 197 5 11 17 43 26 70 70 199 237
422 415 554 41 30 120 78 175 106 88 44 144 65 286 107 19 5 80 13 135 18 155
11 11218 12 11354 0z"/>
</g>
</svg>
